<svg width="32" height="32" viewBox="0 0 32 32" fill="none" xmlns="http://www.w3.org/2000/svg">
<g clip-path="url(#clip0_280_55)">
<path d="M31.1309 12.3826C31.1309 10.7724 30.5259 9.23806 29.4273 8.06194C28.6025 7.17887 27.5576 6.5595 26.4102 6.25894C26.426 6.08712 26.435 5.91388 26.435 5.73938C26.4351 2.57463 23.8605 0 20.6958 0C18.7561 0 17.0394 0.968125 16 2.44556C14.9605 0.968125 13.2438 0 11.3041 0C8.13946 0 5.56489 2.57463 5.56489 5.73925C5.56489 5.91388 5.57396 6.08706 5.58971 6.25881C4.44227 6.55931 3.39752 7.17875 2.57258 8.06181C1.47396 9.238 0.869019 10.7724 0.869019 12.3826C0.869019 13.7254 1.28971 14.9717 2.00558 15.9974C1.26783 17.0533 0.869019 18.3099 0.869019 19.6173C0.869019 22.5517 2.87589 25.0259 5.58914 25.7402C5.57358 25.9128 5.56477 26.0863 5.56477 26.2607C5.56477 29.4254 8.13939 31.9999 11.304 31.9999C13.2437 31.9999 14.9605 31.0318 15.9998 29.5544C17.0394 31.0319 18.7561 32 20.6958 32C23.8605 32 26.435 29.4254 26.435 26.2607C26.435 26.0865 26.4263 25.9129 26.4106 25.7403C29.1239 25.026 31.1308 22.5518 31.1308 19.6174C31.1308 18.3099 30.7319 17.0533 29.9942 15.9974C30.7103 14.9718 31.1309 13.7255 31.1309 12.3826ZM14.9565 21.443V26.2607C14.9565 28.2746 13.318 29.9131 11.3041 29.9131C9.29021 29.9131 7.65183 28.2746 7.65183 26.2607C7.65183 26.1501 7.65733 26.04 7.66714 25.9305C9.28008 25.8105 10.7998 25.0734 11.8931 23.8662L10.3463 22.4651C9.54277 23.3523 8.39596 23.8612 7.19989 23.8612C4.85977 23.8612 2.95602 21.9574 2.95602 19.6174C2.95602 18.8741 3.14821 18.1554 3.50814 17.5224C4.54808 18.2715 5.82327 18.7134 7.19989 18.7134V16.6264C4.85977 16.6264 2.95602 14.7226 2.95602 12.3826C2.95602 10.4202 4.31364 8.73731 6.15777 8.26919C6.79221 9.55463 7.89796 10.5928 9.28858 11.1144L10.0216 9.16037C8.60421 8.62869 7.65183 7.25388 7.65183 5.73931C7.65183 3.72538 9.29033 2.087 11.3041 2.087C13.318 2.087 14.9565 3.7255 14.9565 5.73931V10.5571V12.0077H14.0946V10.5571H12.0076V12.0077H10.557V14.0947H12.0076V14.9566H10.557V17.0435H12.0076V17.9053H10.557V19.9923H12.0076V21.4429H14.0946V19.9923H14.9565V21.443ZM14.0947 17.9053V14.0948H17.9053V17.9053H14.0947ZM28.4918 17.5224C28.8517 18.1554 29.0439 18.8742 29.0439 19.6174C29.0439 21.9575 27.1401 23.8612 24.8 23.8612C23.604 23.8612 22.4571 23.3524 21.6536 22.4651L20.1068 23.8662C21.2002 25.0734 22.7199 25.8104 24.3328 25.9306C24.3426 26.04 24.3481 26.1501 24.3481 26.2608C24.3481 28.2748 22.7096 29.9131 20.6958 29.9131C18.682 29.9131 17.0435 28.2748 17.0435 26.2608V21.4431V19.9924H17.9053V21.4431H19.9922V19.9924H21.4429V17.9054H19.9922V17.0436H21.4429V14.9567H19.9922V14.0948H21.4429V12.0079H19.9922V10.5572H17.9053V12.0079H17.0435V10.5572V5.73925C17.0435 3.72531 18.682 2.08694 20.6958 2.08694C22.7096 2.08694 24.3481 3.72531 24.3481 5.73925C24.3481 7.25375 23.3957 8.62856 21.9783 9.16031L22.7113 11.1143C24.102 10.5926 25.2077 9.5545 25.8422 8.26912C27.6863 8.73731 29.044 10.4201 29.044 12.3826C29.044 14.7226 27.1401 16.6264 24.8001 16.6264V18.7133C26.1766 18.7134 27.4518 18.2714 28.4918 17.5224Z" fill="#06B6D4"/>
</g>
<defs>
<clipPath id="clip0_280_55">
<rect width="32" height="32" fill="white"/>
</clipPath>
</defs>
</svg>
