<svg width="32" height="32" viewBox="0 0 32 32" fill="none" xmlns="http://www.w3.org/2000/svg">
<path d="M14.6267 2.66669H11.96C5.29338 2.66669 2.62671 5.33335 2.62671 12V20C2.62671 26.6667 5.29338 29.3334 11.96 29.3334H19.96C26.6267 29.3334 29.2934 26.6667 29.2934 20V17.3334" stroke="#06B6D4" stroke-width="2" stroke-linecap="round" stroke-linejoin="round"/>
<path d="M29.1733 4.74661C27.5333 8.83995 23.4133 14.4133 19.9733 17.1733L17.8667 18.8533C17.6 19.0533 17.3333 19.2133 17.0267 19.3333C17.0267 19.1333 17.0133 18.9333 16.9867 18.72C16.8667 17.8266 16.4667 16.9866 15.7467 16.28C15.0133 15.5466 14.1333 15.1333 13.2267 15.0133C13.0133 15 12.8 14.9866 12.5867 15C12.7067 14.6666 12.88 14.36 13.1067 14.1066L14.7867 11.9999C17.5467 8.55995 23.1333 4.41328 27.2133 2.77328C27.84 2.53328 28.4533 2.71995 28.84 3.10661C29.24 3.50661 29.4267 4.11995 29.1733 4.74661Z" stroke="#06B6D4" stroke-width="2" stroke-linecap="round" stroke-linejoin="round"/>
<path d="M17.04 19.32C17.04 20.4933 16.5866 21.6133 15.7466 22.4667C15.0933 23.12 14.2133 23.5733 13.16 23.7067L10.5333 23.9867C9.10663 24.1467 7.87996 22.9333 8.03996 21.48L8.31996 18.8533C8.57329 16.52 10.52 15.0267 12.6 14.9867C12.8133 14.9733 13.0266 14.9867 13.24 15C14.1466 15.12 15.0266 15.5333 15.76 16.2667C16.48 16.9867 16.88 17.8133 17 18.7067C17.0266 18.92 17.04 19.1333 17.04 19.32Z" stroke="#06B6D4" stroke-width="2" stroke-linecap="round" stroke-linejoin="round"/>
<path d="M21.0934 15.9732C21.0934 13.1866 18.84 10.9199 16.04 10.9199" stroke="#06B6D4" stroke-width="2" stroke-linecap="round" stroke-linejoin="round"/>
</svg>
